<svg height="128" viewBox="0 0 48 48" width="128" xmlns="http://www.w3.org/2000/svg"><path d="m42 17.3c0 20.5-18 26.7-18 26.7s-18-6.2-18-26.7c0-2.5.2-4.6.4-6.3.3-2.5 2-4.5 4.4-5.1 3.1-.9 8-1.9 13.2-1.9s10.1 1 13.3 1.9c2.4.6 4.1 2.7 4.4 5.1.1 1.7.3 3.9.3 6.3z" fill="#5d4037"/><path d="m24 7c4.9 0 9.5 1 12.5 1.8 1.2.3 2 1.3 2.2 2.6.2 1.9.3 3.9.3 5.9 0 15.6-11.5 21.9-15 23.4-3.5-1.6-15-7.9-15-23.4 0-2 .1-4 .3-5.9.1-1.3 1-2.3 2.2-2.6 3-.8 7.6-1.8 12.5-1.8m0-3c-5.2 0-10.1 1-13.3 1.9-2.3.6-4.1 2.7-4.3 5.1-.2 1.7-.4 3.9-.4 6.3 0 20.5 18 26.7 18 26.7s18-6.2 18-26.7c0-2.5-.2-4.6-.4-6.3-.3-2.5-2-4.5-4.4-5.1-3.1-.9-8-1.9-13.2-1.9z" fill="#4caf50"/><path d="m23 28h2v8h-2z" fill="#dcedc8"/><path d="m24 10s-6 5-6 13c0 5.2 3.3 8.5 5 10l1-3 1 3c1.7-1.5 5-4.8 5-10 0-8-6-13-6-13z" fill="#4caf50"/><path d="m24 10s-6 5-6 13c0 5.2 3.3 8.5 5 10l1-3z" fill="#81c784"/></svg>