<svg version="1.1" xmlns="http://www.w3.org/2000/svg" xmlns:xlink="http://www.w3.org/1999/xlink" viewBox="0 0 224 224" width="128" height="128" style="fill: rgb(0, 0, 0);"><g transform=""><g fill="none" fill-rule="nonzero" stroke="none" stroke-width="1" stroke-linecap="butt" stroke-linejoin="miter" stroke-miterlimit="10" stroke-dasharray="" stroke-dashoffset="0" font-family="none" font-weight="none" font-size="none" text-anchor="none" style="mix-blend-mode: normal"><path d="M0,224v-224h224v224z" fill="none"/><g><g id="surface1"><path d="M0,70h224v79.33333h-112v14h-51.33333v-14h-60.66667z" fill="#d50000"/><path d="M14,135.33333h23.33333v-37.33333h14v37.33333h9.33333v-51.33333h-46.66667z" fill="#ffffff"/><path d="M74.66667,84v65.33333h23.33333v-14h23.33333v-51.33333zM112,121.33333h-14v-23.33333h14z" fill="#ffffff"/><path d="M135.33333,84v51.33333h23.33333v-37.33333h14v37.33333h14v-37.33333h14v37.33333h9.33333v-51.33333z" fill="#ffffff"/></g></g><path d="M112,224c-61.85589,0 -112,-50.14411 -112,-112v0c0,-61.85589 50.14411,-112 112,-112v0c61.85589,0 112,50.14411 112,112v0c0,61.85589 -50.14411,112 -112,112z" fill="none"/><path d="M112,219.52c-59.38166,0 -107.52,-48.13834 -107.52,-107.52v0c0,-59.38166 48.13834,-107.52 107.52,-107.52h0c59.38166,0 107.52,48.13834 107.52,107.52v0c0,59.38166 -48.13834,107.52 -107.52,107.52z" fill="none"/><path d="M0,224v-224h224v224z" fill="none"/><path d="M4.48,219.52v-215.04h215.04v215.04z" fill="none"/><path d="M0,224v-224h224v224z" fill="none"/><path d="M4.48,219.52v-215.04h215.04v215.04z" fill="none"/><path d="" fill="none"/><path d="" fill="none"/></g></g></svg>