<svg height="512" viewBox="0 0 512 512" width="512" xmlns="http://www.w3.org/2000/svg"><circle cx="256" cy="256" fill="#00bcd4" r="256"/><path d="m297.036 205.578-36.334 33.809-33.716-68.005 17.446-39.108c4.416-7.84 11.621-7.855 16.037 0z" fill="#ffa000"/><path d="m260.702 239.386-135.778 126.311 102.062-194.316z" fill="#f57f17"/><path d="m336.776 153.901c6.491-6.239 13.202-4.111 14.912 4.729l35.342 205.375-117.157 70.215c-4.1 2.264-14.957 3.246-14.957 3.246s-9.91-1.185-13.687-3.281l-116.309-68.495z" fill="#ffca28"/><path d="m226.986 171.381-102.062 194.316 45.46-283.998c1.674-8.847 6.71-9.699 11.203-1.89z" fill="#ffa000"/></svg>